<svg xmlns="http://www.w3.org/2000/svg" width="1920" height="1080" viewBox="0 0 1920 1080"><rect width="1920" height="1080" fill="#08131f"/><rect x="0" y="100" width="1920" height="700" fill="#070e17" opacity="0.58"/><text x="90" y="230.0" font-family="Segoe UI" font-size="92" font-weight="700" fill="#ffffff">No valid check? Hold.</text><rect x="90" y="370" width="400" height="178" rx="20" fill="#112c3a" stroke="#88b9c8" stroke-width="4"/><rect x="760" y="370" width="400" height="178" rx="20" fill="#173542" stroke="#ffd095" stroke-width="6"/><rect x="1430" y="370" width="400" height="178" rx="20" fill="#112c3a" stroke="#88b9c8" stroke-width="4"/><text x="160" y="480.0" font-family="Segoe UI" font-size="73" font-weight="700" fill="#ffffff">AGENT</text><text x="783" y="479.0" font-family="Segoe UI" font-size="57" font-weight="700" fill="#ffffff">DISPATCHER</text><text x="1484" y="480.0" font-family="Segoe UI" font-size="70" font-weight="700" fill="#d3dee0">EFFECT</text><path d="M 490 460 H 744 l -17 -12 m 17 12 l -17 12 M 1160 460 H 1414 l -17 -12 m 17 12 l -17 12" stroke="#a0c5cf" stroke-width="5" fill="none"/><path d="M 1198 315 V 600" stroke="#efb976" stroke-width="10" fill="none"/><text x="690" y="661.0" font-family="Segoe UI" font-size="59" font-weight="400" fill="#ffd095">Credential stays here</text><text x="650" y="770.0" font-family="Segoe UI" font-size="64" font-weight="400" fill="#ffffff">Unavailable → HOLD</text><rect x="55" y="31" width="910.96875" height="81" rx="9" fill="#08131f" fill-opacity=".95"/><text x="76" y="87.0" font-family="Segoe UI" font-size="48" font-weight="700" fill="#ffd097">PROPOSED DESIGN / NOT LIVE PROOF</text></svg>